<?xml version="1.0" encoding="UTF-8"?><svg id="a" xmlns="http://www.w3.org/2000/svg" viewBox="0 0 704.32 153.11"><defs><style>.b{fill:#6d08e7;}</style></defs><path class="b" d="m45.68,149.02c-9.13,1.25-18.25,2.56-27.37,3.93-2.24.34-4.03.13-5.4-.62-1.37-.75-2.47-2.14-3.23-4.18-12.92-34.86-12.92-75.08,0-113.97.76-2.28,1.83-4,3.18-5.16,1.34-1.16,3.12-1.91,5.31-2.24,25.67-3.85,51.42-7.26,77.25-10.23,2.2-.25,3.49.08,3.91.99.42.91.01,2.51-1.05,4.79-3.33,7.15-5.32,14.27-6.31,21.34-.32,2.26-.94,3.95-2,5.07-1.06,1.12-2.67,1.81-4.86,2.07-14.67,1.75-29.28,3.64-43.82,5.67-.76,6.22-1.01,12.41-.89,18.57,10.25-1.43,20.52-2.8,30.81-4.09,2.24-.28,3.91.02,5.02.89,1.11.87,1.79,2.43,2.08,4.65.94,7.02,2.31,14,3.75,20.94.46,2.2.27,3.85-.59,4.96-.85,1.11-2.47,1.81-4.83,2.1-10.84,1.34-21.7,2.76-32.56,4.26,2.02,11.36,4.53,22.54,6.76,33.45.43,2.11.22,3.69-.59,4.76-.82,1.07-2.34,1.75-4.57,2.06Z"/><path class="b" d="m217.43,132.09c-29.97,1.8-59.95,4.2-89.94,7.2-2.24.23-3.79-.09-4.7-.96-.91-.86-1.29-2.38-1.23-4.55,1.32-37.04-25.07-74.43-6.03-113.34,1.1-2.28,2.53-3.98,4.11-5.11,1.58-1.12,3.5-1.8,5.7-2.02,8.99-.91,18-1.77,27.01-2.57,2.21-.2,3.46.17,3.81,1.1.35.93-.18,2.53-1.35,4.79-15.53,29.56.42,58.24,6.33,86.83,8.49-.72,16.97-1.4,25.43-2.02-1.89-9.38-5.12-18.77-8.04-28.18-.69-2.21-.65-3.85.09-4.91.73-1.07,2.25-1.69,4.54-1.86,8.74-.66,17.49-1.27,26.25-1.82,2.29-.15,4.11.25,5.47,1.18,1.36.93,2.42,2.5,3.19,4.71,6.46,18.35,13.42,36.69,8.03,54.91-.64,2.2-1.78,3.82-3.17,4.86-1.41,1.04-3.25,1.63-5.48,1.76Z"/><path class="b" d="m358.98,95.37c.8,5.41-.05,10.28-2.34,14.61-2.29,4.34-6.43,8-11.91,11.04-5.48,3.04-12.57,5.43-20.81,7.22-8.26,1.79-17.9,2.8-28.77,3.07-10.89.28-19.27-.28-25.47-1.74-6.21-1.46-10.7-3.62-13.83-6.5-3.12-2.88-5.23-6.46-6.63-10.74-1.4-4.28-2.56-9.09-3.59-14.45-3.78-19.87-15.52-39.79-16.96-59.74-.4-5.38.81-10.32,3.38-14.8,2.57-4.48,6.92-8.41,12.6-11.76,5.68-3.35,12.96-6.05,21.4-8.06,8.45-2.01,18.22-3.18,29.09-3.45,10.89-.27,19.11.43,24.93,2.03,5.83,1.61,9.8,3.94,12.36,7,2.57,3.06,4.1,6.75,5.01,11.08.9,4.34,1.67,9.21,2.47,14.61,2.91,20.01,16.12,40.53,19.06,60.59Zm-73.1-5.4c.61,2.35,1.95,4.28,4.07,5.8,2.12,1.53,6.42,2.2,12.99,2.06,6.56-.14,10.65-1,12.2-2.61,1.55-1.61,2.06-3.59,1.46-5.94-4.04-15.82-12.79-31.77-16.29-47.57-.49-2.23-1.71-4.12-3.72-5.66-2-1.54-6.18-2.23-12.62-2.03-6.44.2-10.5,1.14-12.11,2.78-1.61,1.65-2.22,3.58-1.77,5.81,3.19,15.76,11.68,31.6,15.8,47.37Z"/><path class="b" d="m407.43,128.74c-9.08-.22-18.16-.39-27.25-.5-2.23-.03-3.48-.52-3.81-1.48-.34-.96.19-2.51,1.33-4.66,19.78-36.69-29.73-77.36-11.31-114.07,1.06-2.15,2.53-3.7,4.14-4.65,1.62-.94,3.58-1.41,5.81-1.38,17.97.19,35.96.6,53.96,1.23,16.05.57,24.94,4.03,29.31,10.4,4.37,6.38,7.02,14.68,9.14,25.02,1.53,7.61,4.11,15.34,6.79,23.1,3.71,10.56,3.49,18.93-1.02,25.08-4.5,6.15-15.31,8.73-31.47,8.08-6.85-.28-13.72-.52-20.6-.74,1.46,9.82.57,19.45-4.65,28.74-1.2,2.13-2.77,3.64-4.45,4.55-1.68.91-3.67,1.34-5.89,1.28Zm-3.67-93.93c1.47,8.9,4.8,17.95,8.27,27.03,5.47.15,10.95.31,16.42.5,3.53.12,5.5-.7,5.93-2.47.43-1.77.23-3.79-.56-6.08-1.11-3.19-2.14-6.36-3.02-9.53-.63-2.27-1.67-4.31-3.14-6.12-1.47-1.81-3.93-2.78-7.46-2.88-5.49-.17-10.97-.31-16.44-.44Z"/><path class="b" d="m497.05,132.73c-2.22-.14-3.45-.7-3.75-1.68-.31-.98.28-2.5,1.5-4.58,3.84-6.53,5.65-13.29,6.04-20.22.12-2.21.58-3.8,1.55-4.73.96-.93,2.55-1.33,4.79-1.17,5.83.4,11.64.83,17.45,1.27-.7-19.81-10.77-40.79-14.8-60.82-6.11-.43-12.21-.83-18.3-1.21-2.34-.14-4.14-.75-5.37-1.82-1.23-1.07-2.04-2.73-2.31-4.97-.85-7.13-.61-14.11,1.38-20.88.63-2.12,1.74-3.61,3.14-4.49,1.39-.87,3.23-1.24,5.47-1.1,25.08,1.58,50.17,3.59,75.26,6.01,2.24.22,3.77.85,4.64,1.89.87,1.05,1.19,2.63,1.05,4.78-.44,6.84.15,13.9,1.31,21.09.37,2.26.15,3.85-.71,4.76-.86.91-2.47,1.25-4.83,1.02-6.03-.59-12.05-1.15-18.06-1.69,4.06,20.11,12.53,41.13,12.45,60.88,5.65.54,11.28,1.09,16.91,1.67,2.2.23,3.79.89,4.73,1.99.93,1.1,1.33,2.75,1.07,4.95-.84,6.87-2.81,13.54-6.34,19.95-1.13,2.05-2.58,3.45-4.17,4.25-1.6.8-3.53,1.08-5.73.87-24.73-2.42-49.53-4.43-74.38-6.04Z"/><path class="b" d="m658.08,148.94c-9.35-1.28-18.7-2.51-28.07-3.67-2.2-.27-3.51-.91-3.96-1.93-.45-1.01-.09-2.52.92-4.56,13.23-26.29,5.61-57.11-.13-86.69-9.19-1.13-18.36-2.2-27.52-3.21-2.37-.26-4.19-.96-5.44-2.09-1.25-1.13-2.1-2.84-2.48-5.1-1.21-7.2-1.94-14.28-1.8-21.15.04-2.16.66-3.65,1.74-4.49,1.08-.84,2.74-1.14,4.98-.9,31.1,3.39,62.19,7.44,93.25,12.15,2.23.34,4.03,1.09,5.4,2.26,1.36,1.17,2.47,2.9,3.23,5.18,2.41,7.26,4.37,14.57,5.88,21.89.47,2.3.24,3.88-.65,4.73-.89.86-2.53,1.1-4.92.73-9.25-1.44-18.48-2.82-27.71-4.14,5.4,29.65,7.69,59.83-3.77,86.14-.88,2.04-2.08,3.42-3.51,4.18-1.43.76-3.26.98-5.45.68Z"/></svg>